<svg width="415" height="415" viewBox="0 0 415 415" fill="none" xmlns="http://www.w3.org/2000/svg">
<mask id="mask0_2730_8" style="mask-type:alpha" maskUnits="userSpaceOnUse" x="0" y="0" width="415" height="415">
<path d="M207.5 415C322.099 415 415 322.099 415 207.5C415 92.9009 322.099 0 207.5 0C92.9009 0 0 92.9009 0 207.5C0 322.099 92.9009 415 207.5 415Z" fill="white"/>
</mask>
<g mask="url(#mask0_2730_8)">
<path d="M207.5 415C322.099 415 415 322.099 415 207.5C415 92.9009 322.099 0 207.5 0C92.9009 0 0 92.9009 0 207.5C0 322.099 92.9009 415 207.5 415Z" fill="url(#paint0_linear_2730_8)"/>
<path opacity="0.2" d="M288 33H131C118.297 33 108 43.2975 108 56V267C108 279.703 118.297 290 131 290H288C300.703 290 311 279.703 311 267V56C311 43.2975 300.703 33 288 33Z" fill="white"/>
<path opacity="0.533231" d="M163.5 76H129.5C127.567 76 126 77.567 126 79.5C126 81.433 127.567 83 129.5 83H163.5C165.433 83 167 81.433 167 79.5C167 77.567 165.433 76 163.5 76Z" fill="#9172D6"/>
<path opacity="0.533231" d="M258.5 90H129.5C127.567 90 126 91.567 126 93.5C126 95.433 127.567 97 129.5 97H258.5C260.433 97 262 95.433 262 93.5C262 91.567 260.433 90 258.5 90Z" fill="#9172D6"/>
<path opacity="0.533231" d="M245.5 104H129.5C127.567 104 126 105.567 126 107.5C126 109.433 127.567 111 129.5 111H245.5C247.433 111 249 109.433 249 107.5C249 105.567 247.433 104 245.5 104Z" fill="#9172D6"/>
</g>
<defs>
<linearGradient id="paint0_linear_2730_8" x1="235.211" y1="452.621" x2="82.2969" y2="-44.1484" gradientUnits="userSpaceOnUse">
<stop stop-color="#F9A1CA"/>
<stop offset="1" stop-color="#926EF7"/>
</linearGradient>
</defs>
</svg>
