<?xml version="1.0" encoding="UTF-8"?> <svg xmlns="http://www.w3.org/2000/svg" xmlns:xlink="http://www.w3.org/1999/xlink" width="304px" height="410px" viewBox="0 0 304 410"> <!-- Generator: Sketch 48.1 (47250) - http://www.bohemiancoding.com/sketch --> <title>girl</title> <desc>Created with Sketch.</desc> <defs> <linearGradient x1="56.6773343%" y1="109.065324%" x2="19.8305723%" y2="-10.6381777%" id="linearGradient-1"> <stop stop-color="#F9A1CA" offset="0%"></stop> <stop stop-color="#926EF7" offset="100%"></stop> </linearGradient> <linearGradient x1="12.7766927%" y1="40.1737968%" x2="100.275524%" y2="48.9718398%" id="linearGradient-2"> <stop stop-color="#5B57F0" offset="0%"></stop> <stop stop-color="#61EFF4" offset="100%"></stop> </linearGradient> <linearGradient x1="-5.20572079%" y1="65.6432728%" x2="100.275524%" y2="48.9718398%" id="linearGradient-3"> <stop stop-color="#5B57F0" offset="0%"></stop> <stop stop-color="#61EFF4" offset="100%"></stop> </linearGradient> <linearGradient x1="100%" y1="50%" x2="-11.092033%" y2="50%" id="linearGradient-4"> <stop stop-color="#F9A1CA" offset="0%"></stop> <stop stop-color="#926EF7" offset="100%"></stop> </linearGradient> <rect id="path-5" x="37" y="69" width="7" height="34" rx="1.51"></rect> <filter x="-578.6%" y="-116.2%" width="1542.9%" height="397.1%" filterUnits="objectBoundingBox" id="filter-6"> <feOffset dx="10" dy="11" in="SourceAlpha" result="shadowOffsetOuter1"></feOffset> <feGaussianBlur stdDeviation="15" in="shadowOffsetOuter1" result="shadowBlurOuter1"></feGaussianBlur> <feColorMatrix values="0 0 0 0 0 0 0 0 0 0 0 0 0 0 0 0 0 0 0.0943161232 0" type="matrix" in="shadowBlurOuter1"></feColorMatrix> </filter> <linearGradient x1="32.1397458%" y1="24.6952027%" x2="82.8025277%" y2="76.3642716%" id="linearGradient-7"> <stop stop-color="#5B57F0" offset="0%"></stop> <stop stop-color="#61EFF4" offset="100%"></stop> </linearGradient> </defs> <g id="Landing-page-2" stroke="none" stroke-width="1" fill="none" fill-rule="evenodd" transform="translate(-1269.000000, -232.000000)"> <g id="girl" transform="translate(1285.000000, 232.000000)"> <ellipse id="Oval-6" fill-opacity="0.085229846" fill="#39407B" cx="144" cy="400.5" rx="144" ry="9.5"></ellipse> <path d="M210,354.283393 C210,354.283393 221.470561,369.999449 224.614344,373.55333 C227.758128,377.107212 231.442611,379.871343 230.731977,384.041231 C230.021343,388.211119 226.352308,390.074932 225.25546,391.583358 C224.158612,393.091783 223.069488,394.600209 225.085526,394.963494 C226.259617,395.176727 227.812198,394.402771 228.878149,394.015792 C231.017775,393.226041 233.111056,392.325724 235.157991,391.338535 C239.190067,389.411541 244.187679,387.239724 243.994572,381.806234 C243.90188,379.200054 242.519234,377.802194 240.904858,376.056843 C239.109799,374.015614 237.789487,371.585752 237.042717,368.949079 C235.737313,364.447495 226.429551,341.015568 225.502637,339.143856 C224.575723,337.272145 210,354.283393 210,354.283393 Z" id="Shape" fill="#FFDBDB" fill-rule="nonzero"></path> <path d="M236.344271,391.076033 C236.037303,391.306528 235.716692,391.544458 235.375616,391.819564 L235.232364,391.931094 C234.62525,392.369777 233.786203,392.905119 232.797084,393.485073 C232.060361,393.916321 231.248601,394.377311 230.38909,394.830864 L228.888357,395.574395 C228.247135,395.908984 227.59227,396.221267 226.937405,396.53355 C224.140584,397.857035 221.432444,398.897979 220.027212,398.979767 C219.736382,399.034743 219.437073,398.976861 219.181344,398.81619 C219.134837,398.779624 219.097344,398.731095 219.0722,398.674919 C218.246797,396.912751 224.740877,391.046292 226.19386,388.912358 C227.292123,387.298896 227.919702,386.481012 228.124348,386.07207 C228.334977,387.007642 228.857864,387.824108 229.590973,388.362145 C231.746571,390.102008 235.12322,389.105676 237.094637,386.19847 C238.223167,384.384871 238.649692,382.15921 238.28158,380.004857 C238.486226,379.945375 238.738622,380.450976 238.786372,380.495588 C239.388773,381.392336 239.779956,382.436585 239.925565,383.536629 C240.328034,387.588873 239.093341,389.009017 236.344271,391.076033 Z" id="Shape" fill="url(#linearGradient-1)" fill-rule="nonzero"></path> <path d="M56.1526673,357 C56.1526673,357 49.9395009,377.459197 48.9026016,382.571964 C47.8657023,387.684731 47.8657023,392.797498 43.7263345,394.845857 C39.5869667,396.894215 35.4393695,394.845857 33.3738003,394.845857 C31.3082311,394.845857 29.2591206,394.845857 30.2631024,396.894215 C30.8638457,398.080962 32.5920112,398.966958 33.6535985,399.67413 C35.7767733,401.080344 37.990471,402.356503 40.2370861,403.559508 C44.6562521,405.916745 49.9312715,408.973026 54.613777,405.28273 C56.8603922,403.510737 57.1731078,401.364838 57.633952,398.780005 C58.2382047,395.86008 59.5011788,393.112288 61.3289343,390.741012 C64.4396322,386.676809 78.9315342,363.104433 79.9684335,361.072331 C81.0053328,359.04023 56.1526673,357 56.1526673,357 Z" id="Shape" fill="#FFDBDB" fill-rule="nonzero"></path> <path d="M152.708016,60.9280132 C152.313723,62.2158734 152.313723,63.5868124 152.708016,64.8746726 C153.439683,66.5716582 156.784446,68.8213319 156.784446,71.1021429 C156.784446,72.7524226 153.970343,75.3290384 152.466807,77.0104554 C152.8045,78.3649302 153.053749,79.7972484 152.8045,80.272093 C152.161276,81.5253715 150.529096,83.1445138 151.252723,85.6666393 C151.976349,88.1887648 149.717026,91.0534011 148.679828,89.6132986 C147.64263,88.1731961 147.530066,83.5103776 146.500908,82.0624908 C146.179296,81.6187835 145.74512,81.0271738 145.318985,80.3888581 C142.713929,79.2990508 139.240521,75.8505891 138.725942,73.382954 C138.139001,70.5650236 139.248562,68.5021741 139.023433,66.8986004 C138.549056,63.5669038 133.917846,57.8687684 134.424384,54.2023452 C134.930923,50.535922 135.525905,44.3240203 137.84955,42.0665623 C140.173196,39.8091043 143.091823,34.1732436 142.512922,32.476258 C141.93402,30.7792723 137.5601,25.9919044 132.752003,33.1846327 C127.943906,40.377361 122.749875,37.520509 122.749875,37.520509 C122.749875,37.520509 116.205075,36.4696233 106.090383,27.5799094 L105.632086,31.1684892 C105.157709,34.9049714 106.339632,47.3910495 106.339632,47.3910495 C102.166719,45.4060433 96.6912778,36.5786041 96.0400138,28.6619324 C95.5013141,21.858421 100.534539,18.2075665 103.155675,16.9231507 C103.155675,16.9231507 104.90846,13.5369637 110.150732,11.8477624 C115.393005,10.158561 121.809161,4.51491602 121.809161,4.51491602 C125.876299,1.64784881 130.760745,0.0706247489 135.791235,0 C143.952134,0 151.526093,6.22747037 152.675855,14.6656927 C153.825617,23.1039151 151.510012,29.8918578 149.765268,31.5966278 C149.765268,31.5966278 162.581499,39.4899465 160.836755,45.7018482 C159.092011,51.9137499 155.602522,54.2724043 152.708016,60.9280132 Z" id="Shape" fill="#0F74F2" fill-rule="nonzero"></path> <path d="M54.8595797,397.657863 C54.5091371,398.789772 53.8864495,399.819283 53.0456508,400.656895 L52.8198505,400.866827 C52.5488901,401.10675 52.3005098,401.316682 52.0671829,401.519116 C49.5382198,403.46099 47.5888107,403.251058 44.5405069,402.268874 L43.3889255,401.871503 L42.6362579,401.609087 C40.844909,400.979291 37.7138118,399.719697 34.5676613,398.310152 L33.1150128,397.650365 C29.8108021,396.105863 26.7474449,394.456396 25.5431768,393.271778 C25.3241904,393.077462 25.1518475,392.836602 25.0388895,392.567005 C24.9870368,392.44218 24.9870368,392.301957 25.0388895,392.177131 C25.979724,390.287741 35.990203,391.239934 38.8352865,391.239934 C40.9954425,391.239934 42.1319706,391.299914 42.5986245,391.239934 C41.8986437,392.117151 41.65779,391.989692 41.65779,393.121826 C41.65779,396.248317 44.8340473,398.7825 48.7554455,398.7825 C51.1489284,398.7825 53.6402582,398.34764 54.9122664,396.900607 C55.13054,397.028066 54.874633,397.582887 54.8595797,397.657863 Z" id="Shape" fill="url(#linearGradient-1)" fill-rule="nonzero"></path> <path d="M53.4969568,359.103086 C58.7227333,365.483142 80.0843797,371.499075 85.8240375,365.57813 C89.5793232,361.699436 85.7686964,348.883915 87.4052104,343.738709 C90.6703325,333.551201 106.284415,313.793609 110.593112,308.403016 C114.901808,303.012423 140.769797,267.407597 142.920192,256.650158 C145.070587,245.892719 103.050917,193 103.050917,193 L64.2647445,326.77536 C64.2647445,326.77536 57.7977472,348.353563 55.647352,351.591085 C53.4969568,354.828607 52.2478302,357.583271 53.4969568,359.103086 Z" id="Shape" fill="url(#linearGradient-2)" fill-rule="nonzero"></path> <path d="M205.651206,356.471878 C204.753094,355.948005 204.870239,351.295698 204.268894,349.669346 C203.667549,348.042993 201.558936,346.119519 200.153195,344.438433 C196.818463,340.435104 193.335348,336.291033 189.258697,333.02269 C183.698208,328.565859 178.239245,323.960467 172.749043,319.401989 C168.063238,315.492488 162.979139,312.052127 158.988395,307.431096 C157.623464,305.810987 156.415346,304.064717 155.380325,302.215822 C154.599357,300.878773 153.873057,299.510447 153.154567,298.134303 C152.553222,296.97709 151.944068,295.827697 151.319294,294.701761 C146.378372,285.782886 141.432244,276.861404 136.48091,267.937317 C134.739352,264.809716 132.989985,261.64302 131.271856,258.476324 C130.967279,257.897718 130.756418,257.522406 130.686131,257.366026 C129.616205,255.239257 101.790331,197.081519 102,193 L176.005678,193 C176.005678,193 188.165343,206.487779 184.971186,227.802379 C181.777028,249.116978 177.520755,272.292501 191.351691,287.226795 C195.576725,291.785273 199.887666,296.328113 203.956507,300.573831 C213.187543,310.253756 221.059696,318.362061 223.285454,321.325463 C226.479611,325.579 234.999967,336.228481 234.999967,339.434272 C235.031206,339.402996 212.695534,360.576854 205.651206,356.471878 Z" id="Shape" fill="url(#linearGradient-3)" fill-rule="nonzero"></path> <path d="M124,212.106919 C141.552671,215.834401 159.778397,214.410653 176.573601,208 C180.386906,213.952636 180.816684,221.742998 179.480465,228.726359 C178.144245,235.70972 175.510876,242.381466 174.221542,249.372817 C170.190518,271.152687 179.628729,293.232381 198,305" id="Shape" stroke="#0F74F2" stroke-width="0.73"></path> <path d="M176.987057,192.116587 C177.05252,192.84329 176.86839,193.570595 176.463484,194.18467 C164.558235,208.708251 112.829205,208.387071 100.078185,194.52935 C92.5226209,186.296187 104.419814,158.964593 102.212752,150.418085 C100.00569,141.871576 92.3293016,119.459513 90.1302942,117.328761 C87.9312869,115.198009 114.29521,85.2969789 114.29521,85.2969789 C114.29521,85.2969789 132.95858,65 138.444016,65 C143.929452,65 153.812903,83.1505597 152.717426,93.8199866 C151.68639,103.792219 142.044589,123.070824 149.720977,138.620613 C150.271926,139.744017 150.904501,140.827806 151.613895,141.863743 C161.019947,155.643113 168.975426,170.308557 175.359953,185.638161 C176.249752,187.700826 176.798889,189.887253 176.987057,192.116587 Z" id="Shape" fill="url(#linearGradient-4)" fill-rule="nonzero"></path> <path d="M132.337885,56.5568501 C131.568371,57.037884 130.839753,57.5960111 130.161055,58.2243191 C128.889367,59.2081258 127.595238,60.1669204 126.278667,61.075691 C124.236487,62.4930396 121.38641,64.9025323 118.857996,64.9025323 C117.780801,64.9025323 116.800854,63.6519305 116.142568,62.8432081 C114.972128,61.3422006 113.925599,59.726542 113.015713,58.0158854 C111.033376,54.4475019 108.594728,50.1370946 108.437637,45.843362 C108.325429,42.7918938 108.04865,39.7404256 108.003767,36.6722827 C107.943923,32.7537307 108.609689,28.8768653 109.103403,25 C109.103403,25 124.191604,39.2318476 130.153575,36.8140176 C132.472535,35.8718976 133.078456,34.2627901 134.447391,32.0283817 C135.160924,30.9325613 135.959419,29.9086935 136.833675,28.9685761 C137.8046,27.9128407 139.121127,27.3463994 140.476687,27.4011553 C142.259885,27.521233 143.830665,28.7496247 144.538607,30.5776837 C145.660684,33.6458266 144.58349,36.3304516 142.945257,38.539848 C142.152322,39.6153655 141.232219,40.6241842 140.499128,41.7497257 C139.809979,42.963269 139.285657,44.2837399 138.943181,45.6682778 C137.893319,48.9173755 137.507416,52.3866928 137.813623,55.8231638 C138.35222,60.0501976 141.426712,67.9540005 141.426712,67.9540005 C141.426712,67.9540005 132.943807,71.5390587 127.520433,70.9304326 C128.848779,68.6582038 129.940496,66.2246772 130.774457,63.6769426 C131.118561,62.526389 131.410301,61.3508234 131.664639,60.1752578 C132.031537,59.0075808 132.257924,57.7908456 132.337885,56.5568501 Z" id="Shape" fill="#FFDBDB" fill-rule="nonzero"></path> <g id="Rectangle-path" fill-rule="nonzero" transform="translate(40.500000, 86.000000) rotate(135.000000) translate(-40.500000, -86.000000) "> <use fill="black" fill-opacity="1" filter="url(#filter-6)" xlink:href="#path-5"></use> <use fill="#2E2E2E" fill-rule="evenodd" xlink:href="#path-5"></use> </g> <path d="M58.5304743,108 C58.5304743,108 59.5256459,105.125078 50.5534297,102.257683 C41.5812135,99.390287 35.1008443,87.4164641 34.0978367,84.0674061 C33.0948292,80.7183482 40.0767022,85.9790033 42.5685491,89.8097235 C45.0603961,93.6404437 52.0422691,96.0337031 54.534116,96.0337031 C57.025963,96.0337031 48.0537468,90.765522 47.552243,89.3280612 C47.0507392,87.8906004 48.0537468,87.4164641 48.0537468,87.4164641 C48.0537468,87.4164641 55.0356198,90.2913857 58.0211345,92.6846451 C61.0066493,95.0779045 64,100.346086 64,100.346086 L58.5304743,108 Z" id="Shape" fill="#FFDBDB" fill-rule="nonzero"></path> <path d="M231,394 C230.20339,394.292842 229.389831,394.566161 228.576271,394.839479 L227.677966,394.800434 C226.831747,394.750685 225.981813,394.750685 225.135593,394.800434 C223.130018,394.991798 221.303283,395.78201 220.050847,397 L219,396.856833 C220.411777,395.300343 222.629689,394.287482 225.084746,394.078091 C225.987111,394.019871 226.894245,394.019871 227.79661,394.078091 C228.864175,394.161622 229.941484,394.13536 231,394 Z" id="Shape" fill="#FFFFFF" fill-rule="nonzero"></path> <path d="M242,391.089757 C241.639588,391.268405 241.263158,391.452817 240.8627,391.666043 C239.753455,391.83301 238.744985,392.246215 237.979405,392.847428 C237.923341,392.882006 237.883295,392.916583 237.827231,392.956923 C236.962243,393.291168 236.009153,393.648466 235,394 C235.572739,393.669757 236.108347,393.307492 236.601831,392.916583 C236.842105,392.737934 237.08238,392.553523 237.338673,392.380637 C238.860412,391.314508 240.406178,390.847717 241.80778,391.043654 C241.875679,391.049017 241.941209,391.064734 242,391.089757 Z" id="Shape" fill="#FFFFFF" fill-rule="nonzero"></path> <path d="M36.6682464,400.532219 L37,401 L35.1706161,400.23769 C34.7345972,399.63997 34.2796209,399.033587 33.7962085,398.505168 C32.0805687,396.512767 30.2417062,395.334652 28.3080569,395.040123 C27.4123934,394.896752 26.4913425,394.96839 25.6350711,395.248026 C25.3592919,395.023516 25.142253,394.745229 25,394.43374 C26.1131542,394.018083 27.3320694,393.897978 28.5165877,394.087236 C30.6966825,394.468391 32.7630332,395.75912 34.6303318,397.942098 C35.3791469,398.730396 36.0331754,399.63997 36.6682464,400.532219 Z" id="Shape" fill="#FFFFFF" fill-rule="nonzero"></path> <path d="M56,403.282685 C55.6552275,403.407435 55.339186,403.516592 55.0422985,403.62185 C52.2373523,403.316524 49.266912,403.380667 46.557063,403.805077 C46.1931365,403.867453 45.8292099,403.932427 45.4652833,404 L44,403.793382 L44.3735036,403.72321 C44.9768555,403.610155 45.5610535,403.493201 46.1644054,403.39574 C49.319001,402.910091 52.7831069,402.870272 56,403.282685 Z" id="Shape" fill="#FFFFFF" fill-rule="nonzero"></path> <path d="M147.71486,96.3546685 C147.265566,99.8591843 146.396223,103.297983 145.125275,106.598104 C144.389961,108.564336 143.526766,110.514712 142.639593,112.528514 C139.074918,120.45687 135.222511,128.575506 128.548735,134.410776 C128.548735,134.410776 115.832594,145.510474 102.109392,142.473913 C88.3861901,139.437353 65,115.240012 65,115.240012 L73.6319499,103.632899 C73.6319499,103.632899 73.7838082,103.759753 74.2154057,104.06103 C74.6470032,104.362308 75.0786007,104.671514 75.813915,105.178928 C77.7001559,106.479179 81.0570253,108.675333 86.819651,112.266878 L88.3622125,113.218281 L88.6099814,113.376848 C93.6293004,116.484764 99.1361647,119.782959 104.962731,121.162493 C105.276375,121.253345 105.604811,121.282963 105.929829,121.249705 C106.357915,121.142637 106.747892,120.920407 107.056778,120.607508 C109.92184,118.143276 112.4311,115.299344 114.513824,112.155881 C116.8493,108.603531 118.794586,104.813312 120.316412,100.850046 C122.402467,95.5618329 123.129788,88.8306589 126.390747,84.1370724 C130.426983,78.333516 138.723246,75.4158811 144.294051,80.9657301 C148.258353,84.8744095 148.330286,91.2250223 147.71486,96.3546685 Z" id="Shape" fill="url(#linearGradient-7)" fill-rule="nonzero"></path> <path d="M59.5893941,109.27409 L63.4014991,112.51222 C63.8090519,112.859535 64.368687,113.035304 64.935732,112.994089 C65.5027769,112.952875 66.0215706,112.698722 66.3579984,112.297333 L74.6175594,102.442153 C74.9304285,102.070279 75.0591271,101.60395 74.9746741,101.148178 C74.8902211,100.692406 74.5997167,100.285509 74.1685782,100.019113 L69.788893,97.314496 C68.9080476,96.770962 67.6910588,96.9494812 67.06112,97.7146311 L59.3691391,107.043707 C58.8032356,107.732838 58.8967745,108.680048 59.5893941,109.27409 Z" id="Shape" fill="#FAFDFF" fill-rule="nonzero"></path> </g> </g> </svg> 