<svg width="149" height="346" viewBox="0 0 149 346" fill="none" xmlns="http://www.w3.org/2000/svg">
<path d="M63.5 346C98.5701 346 127 343.985 127 341.5C127 339.015 98.5701 337 63.5 337C28.4299 337 0 339.015 0 341.5C0 343.985 28.4299 346 63.5 346Z" fill="black" fill-opacity="0.160921"/>
<path d="M80 190.495L79.2426 235.666C79.1195 237.619 78.9017 239.582 78.5987 241.544C77.1785 250.804 74.0257 260.074 70.7167 268.643C66.5981 279.333 61.3434 291.14 52.4388 298.849C52.3536 298.923 52.2731 298.989 52.1879 299.059C48.306 302.404 44.2064 305.483 40.0216 308.431C33.323 313.155 26.1794 318.528 18.5624 321.747C13.2509 323.995 5.66709 310.534 7.20089 309.768C8.14145 309.06 9.03634 308.296 9.88033 307.478C18.4015 299.732 43.965 274.637 45.887 266.363C47.0705 261.307 46.2041 245.553 45.1059 231.573C44.0833 218.636 42.8525 189 42.8525 189L80 190.495Z" fill="white"/>
<path d="M18.7141 337.711C16.2749 330.541 17.9592 322.907 17.9592 322.907C17.9592 322.907 11.9108 307.34 5.10741 311.805C-1.69594 316.269 4.35253 325.887 7.37677 334.043C10.401 342.199 14.0103 345.025 17.2044 343.679C18.6339 343.036 19.4737 339.936 18.7141 337.711Z" fill="#9151F4"/>
<path d="M110.972 327.45C106.65 327.599 102.323 327.341 98.0476 326.68C98.0476 326.68 79.0402 322.831 81.1659 333.449C82.7981 341.627 94.75 338.486 103.637 338.024C112.524 337.562 116.362 334.907 115.973 331.385C115.817 329.826 113.373 327.392 110.972 327.45Z" fill="#9151F4"/>
<path d="M46.5431 144.571L42.4938 157C42.4938 157 19.3533 132.339 20.0139 121.981C20.8551 108.796 54.0522 81.3621 54.0522 81.3621C55.1724 79.6937 56.9154 78.5362 58.8966 78.1451C60.8778 77.7539 62.9344 78.1612 64.6126 79.2771C66.2935 80.3889 67.4597 82.1189 67.8538 84.0852C68.2479 86.0516 67.8376 88.0928 66.7132 89.7584C66.7132 89.7584 36.9903 113.622 35.7926 125.301C35.2033 130.783 46.5431 144.571 46.5431 144.571Z" fill="#FFE7CD"/>
<path d="M82.5749 267.621C83.8919 257.687 75 190 75 190L114 191.5L113.253 236.822C112.552 248.045 109.274 259.15 106.336 269.918C102.283 284.788 96.7907 325.455 96.0621 330.714C95.3336 335.974 80.3473 330.714 80.3473 329.214C80.3473 327.714 80.5527 282.894 82.5749 267.621Z" fill="white"/>
<path d="M79.5 114L71 196.291C71 196.291 77.5592 197.082 79.5 196.993C81.4408 196.904 88 196.291 88 196.291L79.5 114Z" fill="#1C1C1C"/>
<path d="M117.425 200.891C117.425 200.891 96.2158 207.197 85.6111 205.797L79.4948 139.971L73.3785 205.797C62.7739 207.197 41.5645 200.891 41.5645 200.891C41.5645 200.891 31.6843 198.788 34.5072 183.369C36.775 170.986 37.7253 156.84 43.9592 145.619C48.5276 137.392 52.2962 128.666 54.0982 119.412C55.8531 110.406 54.4792 101.083 53.6512 92.0445C53.3548 88.7797 52.3056 83.3043 54.3005 80.338C57.1234 76.1405 64.1806 74.0324 71.9765 75.4316H87.032C94.809 74.0324 101.88 76.1312 104.708 80.338C106.703 83.3043 105.649 88.7751 105.357 92.0445C104.529 101.083 103.16 110.406 104.91 119.412C106.712 128.666 110.481 137.387 115.049 145.619C121.274 156.84 122.215 170.986 124.492 183.369C127.319 198.788 117.425 200.891 117.425 200.891Z" fill="#4E4E4E"/>
<path d="M98.543 74.3575L40.4038 143.059L43.4572 145.643L101.596 76.9415L98.543 74.3575Z" fill="#1C1C1C"/>
<path d="M43.0129 139.548C44.5635 140.067 45.7759 143.99 45.9497 145.32C46.4196 149.013 43.4781 152.054 42.0402 155.19C40.0526 159.519 41.3448 163.636 41.0582 168.13C40.8044 172.167 39.531 176.265 36.2418 178.84C33.3849 181.07 30.2225 183.994 26.6185 184.88C21.4497 186.154 23.1883 176.901 23.6723 174.383C24.9034 167.998 25.8855 161.207 28.1409 155.11C28.6933 153.569 29.3985 152.087 30.246 150.687C31.5147 148.64 33.1405 146.763 34.4186 144.684C35.4524 143 36.5472 141.067 38.0697 139.775C39.484 138.577 41.3401 138.987 43.0129 139.548Z" fill="#1C1C1C"/>
<path d="M29.7918 155C29.7918 155 17.0375 168.532 16.1353 171.019C15.2332 173.507 19.05 177.146 21.4046 175.651C23.7592 174.155 30 168.59 30 168.59L29.7918 155Z" fill="#1C1C1C"/>
<path d="M148.996 17.7127C148.779 19.7055 148.688 21.7099 148.722 23.714C148.675 26.2826 148.651 28.8794 148.618 31.4246C148.575 34.383 148.519 37.3413 148.415 40.2997C148.311 43.2581 148.16 46.24 147.909 49.2218C147.715 51.8454 147.381 54.4568 146.908 57.0451C146.61 58.9929 146.039 60.8897 145.211 62.6801C145.025 63.0489 144.807 63.4008 144.559 63.732C137.444 73.0532 105.863 90.4184 105.863 90.4184C104.149 92.4445 101.459 93.3797 98.8485 92.8575C96.2376 92.3353 94.1215 90.4389 93.3296 87.9117C92.5378 85.3845 93.1965 82.6293 95.0475 80.7262C95.0475 80.7262 127.177 62.3514 134.524 52.786C138.705 47.3529 140.694 23.7046 142.556 17.5671C141.965 16.5435 140.26 14.4021 139.811 13.5146C139.778 13.4536 139.735 13.3691 139.688 13.2658C138.874 12.3323 138.005 11.4479 137.085 10.6173C136.518 10.2651 132.209 8.33981 132.105 7.87962C132.105 7.87962 129.997 4.98229 133.64 6.0952C134.788 6.44739 135.733 6.71975 136.527 6.92637C136.787 6.76201 138.861 5.41431 138.861 3.63928C138.861 1.76094 133.664 2.70011 133.664 2.70011C133.664 2.70011 127.994 3.16969 130.356 1.29136C132.719 -0.58698 138.861 -0.117396 141.696 0.821772C144.531 1.76094 145.003 5.51761 145.948 9.27429C146.368 10.8747 146.913 12.4401 147.578 13.956C147.862 14.6182 148.155 15.2756 148.443 15.9377C148.677 16.3689 148.855 16.8281 148.972 17.3042C148.998 17.4388 149.006 17.5761 148.996 17.7127Z" fill="#FFE7CD"/>
<path d="M128.382 5.31074L128.772 2.34096L145.13 4.48867C145.952 4.59666 146.531 5.35006 146.423 6.17144C146.316 6.99281 145.561 7.57113 144.739 7.46314L128.381 5.31543L128.382 5.31074Z" fill="#141D42"/>
<path d="M128.628 6L129 3L126 4.10828L128.628 6Z" fill="#5B50CE"/>
<path d="M139.905 124.925C135.793 133.358 111.676 126.921 102.266 127.736C90.3815 128.766 73.0957 138.043 55.217 119.772C38.9851 103.159 39.8178 53.2462 40.1095 44.3122C40.0484 43.6657 40.0154 43.0145 40.0154 42.3539C40.0154 30.5621 49.8957 21.0002 62.0344 21.0002C69.3166 20.9674 76.15 24.5 80.313 30.4496C85.8789 35.1064 90.3674 60.817 102.737 69.1748C115.91 78.0761 147.226 109.868 139.905 124.925Z" fill="#1C1C1C"/>
</svg>
