<?xml version="1.0" encoding="UTF-8"?> <svg xmlns="http://www.w3.org/2000/svg" xmlns:xlink="http://www.w3.org/1999/xlink" width="386px" height="639px" viewBox="0 0 386 639"> <!-- Generator: Sketch 48.1 (47250) - http://www.bohemiancoding.com/sketch --> <title>Group 8</title> <desc>Created with Sketch.</desc> <defs> <rect id="path-1" x="0" y="4" width="267" height="544" rx="33"></rect> <filter x="-24.3%" y="-6.4%" width="148.7%" height="125.7%" filterUnits="objectBoundingBox" id="filter-2"> <feMorphology radius="15" operator="erode" in="SourceAlpha" result="shadowSpreadOuter1"></feMorphology> <feOffset dx="0" dy="40" in="shadowSpreadOuter1" result="shadowOffsetOuter1"></feOffset> <feGaussianBlur stdDeviation="30" in="shadowOffsetOuter1" result="shadowBlurOuter1"></feGaussianBlur> <feColorMatrix values="0 0 0 0 0.72350659 0 0 0 0 0.710346215 0 0 0 0 0.710346215 0 0 0 0.5 0" type="matrix" in="shadowBlurOuter1"></feColorMatrix> </filter> <linearGradient x1="101.665625%" y1="86.8009868%" x2="1.39479167%" y2="21.7036732%" id="linearGradient-3"> <stop stop-color="#75C5FA" offset="0%"></stop> <stop stop-color="#769CF8" offset="100%"></stop> </linearGradient> <rect id="path-4" x="206" y="163" width="139" height="38" rx="8"></rect> <filter x="-29.1%" y="-103.9%" width="172.7%" height="365.8%" filterUnits="objectBoundingBox" id="filter-5"> <feOffset dx="10" dy="11" in="SourceAlpha" result="shadowOffsetOuter1"></feOffset> <feGaussianBlur stdDeviation="15" in="shadowOffsetOuter1" result="shadowBlurOuter1"></feGaussianBlur> <feColorMatrix values="0 0 0 0 0 0 0 0 0 0 0 0 0 0 0 0 0 0 0.0943161232 0" type="matrix" in="shadowBlurOuter1"></feColorMatrix> </filter> <linearGradient x1="101.999998%" y1="100.999999%" x2="6.24500451e-15%" y2="0%" id="linearGradient-6"> <stop stop-color="#9B91FF" offset="0%"></stop> <stop stop-color="#DCB9E2" offset="100%"></stop> </linearGradient> <rect id="path-7" x="32" y="206" width="146" height="38" rx="8"></rect> <filter x="-27.7%" y="-103.9%" width="169.2%" height="365.8%" filterUnits="objectBoundingBox" id="filter-8"> <feOffset dx="10" dy="11" in="SourceAlpha" result="shadowOffsetOuter1"></feOffset> <feGaussianBlur stdDeviation="15" in="shadowOffsetOuter1" result="shadowBlurOuter1"></feGaussianBlur> <feColorMatrix values="0 0 0 0 0 0 0 0 0 0 0 0 0 0 0 0 0 0 0.0943161232 0" type="matrix" in="shadowBlurOuter1"></feColorMatrix> </filter> <rect id="path-9" x="196" y="254" width="139" height="80" rx="8"></rect> <filter x="-29.1%" y="-49.4%" width="172.7%" height="226.2%" filterUnits="objectBoundingBox" id="filter-10"> <feOffset dx="10" dy="11" in="SourceAlpha" result="shadowOffsetOuter1"></feOffset> <feGaussianBlur stdDeviation="15" in="shadowOffsetOuter1" result="shadowBlurOuter1"></feGaussianBlur> <feColorMatrix values="0 0 0 0 0 0 0 0 0 0 0 0 0 0 0 0 0 0 0.0943161232 0" type="matrix" in="shadowBlurOuter1"></feColorMatrix> </filter> <rect id="path-11" x="172" y="397" width="170" height="96" rx="8"></rect> <filter x="-23.8%" y="-41.1%" width="159.4%" height="205.2%" filterUnits="objectBoundingBox" id="filter-12"> <feOffset dx="10" dy="11" in="SourceAlpha" result="shadowOffsetOuter1"></feOffset> <feGaussianBlur stdDeviation="15" in="shadowOffsetOuter1" result="shadowBlurOuter1"></feGaussianBlur> <feColorMatrix values="0 0 0 0 0 0 0 0 0 0 0 0 0 0 0 0 0 0 0.0943161232 0" type="matrix" in="shadowBlurOuter1"></feColorMatrix> </filter> <rect id="path-13" x="33" y="330" width="146" height="48" rx="8"></rect> <filter x="-27.7%" y="-82.3%" width="169.2%" height="310.4%" filterUnits="objectBoundingBox" id="filter-14"> <feOffset dx="10" dy="11" in="SourceAlpha" result="shadowOffsetOuter1"></feOffset> <feGaussianBlur stdDeviation="15" in="shadowOffsetOuter1" result="shadowBlurOuter1"></feGaussianBlur> <feColorMatrix values="0 0 0 0 0 0 0 0 0 0 0 0 0 0 0 0 0 0 0.0943161232 0" type="matrix" in="shadowBlurOuter1"></feColorMatrix> </filter> </defs> <g id="Landing-page-2" stroke="none" stroke-width="1" fill="none" fill-rule="evenodd" transform="translate(-768.000000, -2131.000000)"> <g id="Group-8" transform="translate(768.000000, 2131.000000)"> <rect id="Rectangle-10" fill="#FFFFFF" x="0" y="0" width="386" height="637"></rect> <g id="Iphone-Copy" transform="translate(58.000000, 22.000000)"> <path d="M197,0 L220,0 C222.761424,-5.07265313e-16 225,2.23857625 225,5 L192,5 L192,5 C192,2.23857625 194.238576,5.07265313e-16 197,0 Z" id="Rectangle-5" fill="#D0CDCD"></path> <g id="Rectangle-4"> <use fill="black" fill-opacity="1" filter="url(#filter-2)" xlink:href="#path-1"></use> <use fill="#F0F0F0" fill-rule="evenodd" xlink:href="#path-1"></use> </g> <rect id="screen" fill="#333333" opacity="0.0463088768" x="16" y="63" width="234" height="422" rx="3"></rect> <circle id="Oval-2" stroke="#CCCACA" stroke-width="2" fill="#DDDDDD" opacity="0.335031703" cx="134" cy="515" r="19"></circle> <circle id="Oval-2-Copy" fill="#9E9E9E" cx="106.5" cy="34.5" r="3.5"></circle> <circle id="Oval-2-Copy-2" fill="#999999" cx="160" cy="35" r="2"></circle> <rect id="Rectangle-6" fill="#C1C1C1" x="115" y="34" width="38" height="3" rx="1.5"></rect> </g> <g id="Rectangle-8-Copy-5"> <use fill="black" fill-opacity="1" filter="url(#filter-5)" xlink:href="#path-4"></use> <use fill="url(#linearGradient-3)" fill-rule="evenodd" xlink:href="#path-4"></use> </g> <g id="Rectangle-8-Copy-6"> <use fill="black" fill-opacity="1" filter="url(#filter-8)" xlink:href="#path-7"></use> <use fill="url(#linearGradient-6)" fill-rule="evenodd" xlink:href="#path-7"></use> </g> <g id="Rectangle-8-Copy-7"> <use fill="black" fill-opacity="1" filter="url(#filter-10)" xlink:href="#path-9"></use> <use fill="url(#linearGradient-3)" fill-rule="evenodd" xlink:href="#path-9"></use> </g> <g id="Rectangle-8-Copy-8"> <use fill="black" fill-opacity="1" filter="url(#filter-12)" xlink:href="#path-11"></use> <use fill="url(#linearGradient-3)" fill-rule="evenodd" xlink:href="#path-11"></use> </g> <rect id="Rectangle-9-Copy-21" fill="#FFFFFF" x="81" y="95" width="29" height="6" rx="3"></rect> <rect id="Rectangle-9-Copy-22" fill="#FFFFFF" x="152" y="95" width="69" height="6" rx="3"></rect> <rect id="Rectangle-9-Copy-23" fill="#FFFFFF" x="96" y="138" width="46" height="6" rx="3"></rect> <rect id="Rectangle-9-Copy-24" fill="#95E38A" x="145" y="138" width="6" height="6" rx="3"></rect> <rect id="Rectangle-9-Copy-25" fill="#FFFFFF" opacity="0.24292346" x="48" y="217" width="69" height="6" rx="3"></rect> <rect id="Rectangle-9-Copy-26" fill="#FFFFFF" opacity="0.24292346" x="215" y="174" width="70" height="6" rx="3"></rect> <rect id="Rectangle-9-Copy-27" fill="#FFFFFF" opacity="0.24292346" x="211" y="266" width="67" height="6" rx="3"></rect> <rect id="Rectangle-9-Copy-28" fill="#FFFFFF" opacity="0.24292346" x="211" y="316" width="67" height="6" rx="3"></rect> <rect id="Rectangle-9-Copy-29" fill="#FFFFFF" opacity="0.24292346" x="184" y="412" width="145" height="65" rx="27"></rect> <rect id="Rectangle-9-Copy-30" fill="#FFFFFF" opacity="0.24292346" x="48" y="227" width="110" height="6" rx="3"></rect> <rect id="Rectangle-9-Copy-31" fill="#DADBDD" opacity="0.339221014" x="215" y="184" width="112" height="6" rx="3"></rect> <rect id="Rectangle-9-Copy-32" fill="#FFFFFF" opacity="0.24292346" x="211" y="276" width="107" height="6" rx="3"></rect> <rect id="Rectangle-9-Copy-33" fill="#FFFFFF" opacity="0.24292346" x="211" y="286" width="107" height="6" rx="3"></rect> <rect id="Rectangle-9-Copy-34" fill="#FFFFFF" opacity="0.24292346" x="211" y="296" width="107" height="6" rx="3"></rect> <rect id="Rectangle-9-Copy-35" fill="#FFFFFF" opacity="0.24292346" x="211" y="306" width="94" height="6" rx="3"></rect> <rect id="Rectangle-9-Copy-36" fill="#FFFFFF" x="95" y="122" width="78" height="10" rx="5"></rect> <rect id="Rectangle-9-Copy-37" fill="#FFFFFF" x="263" y="95" width="28" height="6" rx="3"></rect> <rect id="Rectangle-9-Copy-38" fill="#FFFFFF" x="255" y="122" width="43" height="6" rx="3"></rect> <g id="Rectangle-8-Copy-9"> <use fill="black" fill-opacity="1" filter="url(#filter-14)" xlink:href="#path-13"></use> <use fill="url(#linearGradient-6)" fill-rule="evenodd" xlink:href="#path-13"></use> </g> <rect id="Rectangle-9-Copy-39" fill="#FFFFFF" opacity="0.24292346" x="45" y="341" width="103" height="6" rx="3"></rect> <rect id="Rectangle-9-Copy-40" fill="#FFFFFF" opacity="0.24292346" x="45" y="351" width="118" height="6" rx="3"></rect> <rect id="Rectangle-9-Copy-41" fill="#FFFFFF" opacity="0.24292346" x="45" y="361" width="124" height="6" rx="3"></rect> <g id="image-copy-2" opacity="0.26392663" transform="translate(250.000000, 434.000000)" fill="#FFFFFF" fill-rule="nonzero"> <path d="M17,0 L3,0 C1.3,0 0,1.3 0,3 L0,17 C0,18.7 1.3,20 3,20 L17,20 C18.7,20 20,18.7 20,17 L20,3 C20,1.3 18.7,0 17,0 Z M2,3 C2,2.4 2.4,2 3,2 L17,2 C17.6,2 18,2.4 18,3 L18,10.6 L14.7,7.3 C14.3,6.9 13.7,6.9 13.3,7.3 L2.7,17.9 C2.3,17.8 2,17.4 2,17 L2,3 Z M17,18 L5.4,18 L14,9.4 L18,13.4 L18,17 C18,17.6 17.6,18 17,18 Z" id="Shape"></path> <path d="M6.5,9 C7.9,9 9,7.9 9,6.5 C9,5.1 7.9,4 6.5,4 C5.1,4 4,5.1 4,6.5 C4,7.9 5.1,9 6.5,9 Z M6.5,6 C6.8,6 7,6.2 7,6.5 C7,6.8 6.8,7 6.5,7 C6.2,7 6,6.8 6,6.5 C6,6.2 6.2,6 6.5,6 Z" id="Shape"></path> </g> </g> </g> </svg> 