<?xml version="1.0" encoding="UTF-8"?> <svg xmlns="http://www.w3.org/2000/svg" xmlns:xlink="http://www.w3.org/1999/xlink" width="1920px" height="644px" viewBox="0 0 1920 644"><!-- Generator: Sketch 48.1 (47250) - http://www.bohemiancoding.com/sketch --><title>download</title><desc>Created with Sketch.</desc><defs><linearGradient x1="33.9216329%" y1="14.604%" x2="62.1541207%" y2="89.544%" id="linearGradient-1"><stop stop-color="#3EE97A" offset="0%"></stop><stop stop-color="#25D5FA" offset="100%"></stop></linearGradient><linearGradient x1="-3.288%" y1="38.7264382%" x2="90.282%" y2="62.5946923%" id="linearGradient-2"><stop stop-color="#3EE97A" offset="0%"></stop><stop stop-color="#25D5FA" offset="100%"></stop></linearGradient><linearGradient x1="-3.288%" y1="38.3348573%" x2="90.282%" y2="63.0321619%" id="linearGradient-3"><stop stop-color="#3EE97A" offset="0%"></stop><stop stop-color="#25D5FA" offset="100%"></stop></linearGradient><linearGradient x1="50%" y1="0%" x2="50%" y2="100%" id="linearGradient-4"><stop stop-color="#FFA3A3" offset="0%"></stop><stop stop-color="#FFA569" offset="100%"></stop></linearGradient><linearGradient x1="50%" y1="0%" x2="50%" y2="100%" id="linearGradient-5"><stop stop-color="#FF9D9D" offset="0%"></stop><stop stop-color="#FCA46A" offset="100%"></stop></linearGradient></defs><g id="Page-1" stroke="none" stroke-width="1" fill="none" fill-rule="evenodd"><g id="download"><g id="Group" transform="translate(1423.500000, 216.397000) scale(-1, 1) translate(-1423.500000, -216.397000) translate(1181.000000, 78.897000)" fill-rule="nonzero"><polygon id="Shape" fill="#EFF9FF" points="462.147 126.482 462.147 93.973 442.848 93.973 442.848 126.482 419.995 126.482 419.995 76.194 403.236 76.194 403.236 38.605 389.524 38.605 389.524 0 361.084 0 361.084 38.605 347.372 38.605 347.372 76.194 331.12 76.194 331.12 30.986 321.979 30.986 321.979 8.127 316.393 8.127 316.393 30.986 283.89 30.986 283.89 175.246 259.005 175.246 259.005 160.007 243.77 160.007 243.77 175.246 218.885 175.246 218.885 126.482 174.194 126.482 174.194 93.973 154.895 93.973 154.895 126.482 153.88 126.482 153.88 188.961 133.565 188.961 133.565 152.388 109.188 152.388 109.188 188.961 88.874 188.961 88.874 76.194 73.131 76.194 73.131 38.605 15.236 38.605 15.236 76.194 0 76.194 0 274.806 88.874 274.806 153.88 274.806 218.885 274.806 283.89 274.806 331.12 274.806 419.995 274.806 485 274.806 485 126.482"></polygon><rect id="Rectangle-path" fill="#FFFFFF" opacity="0.4" x="9.649" y="87.877" width="21.33" height="12.191"></rect><rect id="Rectangle-path" fill="#FFFFFF" opacity="0.4" transform="translate(68.052000, 93.973500) rotate(-180.000000) translate(-68.052000, -93.973500) " x="57.387" y="87.878" width="21.33" height="12.191"></rect><rect id="Rectangle-path" fill="#FFFFFF" opacity="0.4" x="9.649" y="111.751" width="21.33" height="12.191"></rect><rect id="Rectangle-path" fill="#FFFFFF" opacity="0.4" transform="translate(68.052000, 117.847500) rotate(-180.000000) translate(-68.052000, -117.847500) " x="57.387" y="111.752" width="21.33" height="12.191"></rect><rect id="Rectangle-path" fill="#FFFFFF" opacity="0.4" x="9.649" y="135.625" width="21.33" height="12.191"></rect><rect id="Rectangle-path" fill="#FFFFFF" opacity="0.4" transform="translate(68.052000, 141.719500) rotate(-180.000000) translate(-68.052000, -141.719500) " x="57.387" y="135.624" width="21.33" height="12.191"></rect><rect id="Rectangle-path" fill="#FFFFFF" opacity="0.4" x="9.649" y="159.499" width="21.33" height="12.191"></rect><rect id="Rectangle-path" fill="#FFFFFF" opacity="0.4" transform="translate(68.052000, 165.595500) rotate(-180.000000) translate(-68.052000, -165.595500) " x="57.387" y="159.5" width="21.33" height="12.191"></rect><rect id="Rectangle-path" fill="#FFFFFF" opacity="0.4" x="9.649" y="183.373" width="21.33" height="12.191"></rect><rect id="Rectangle-path" fill="#FFFFFF" opacity="0.4" transform="translate(68.052000, 189.469500) rotate(-180.000000) translate(-68.052000, -189.469500) " x="57.387" y="183.374" width="21.33" height="12.191"></rect><rect id="Rectangle-path" fill="#FFFFFF" opacity="0.4" x="9.649" y="207.247" width="21.33" height="12.191"></rect><rect id="Rectangle-path" fill="#FFFFFF" opacity="0.4" transform="translate(68.052000, 213.343500) rotate(-180.000000) translate(-68.052000, -213.343500) " x="57.387" y="207.248" width="21.33" height="12.191"></rect><rect id="Rectangle-path" fill="#FFFFFF" opacity="0.4" x="9.649" y="231.122" width="21.33" height="12.191"></rect><rect id="Rectangle-path" fill="#FFFFFF" opacity="0.4" transform="translate(68.052000, 237.216500) rotate(-180.000000) translate(-68.052000, -237.216500) " x="57.387" y="231.121" width="21.33" height="12.191"></rect><rect id="Rectangle-path" fill="#FFFFFF" opacity="0.4" x="96.492" y="201.152" width="49.77" height="6.096"></rect><rect id="Rectangle-path" fill="#FFFFFF" opacity="0.4" x="96.492" y="210.295" width="49.77" height="6.096"></rect><rect id="Rectangle-path" fill="#FFFFFF" opacity="0.4" x="96.492" y="219.438" width="49.77" height="6.096"></rect><rect id="Rectangle-path" fill="#FFFFFF" opacity="0.4" x="226.503" y="204.2" width="49.77" height="6.096"></rect><rect id="Rectangle-path" fill="#FFFFFF" opacity="0.4" x="226.503" y="213.343" width="49.77" height="6.096"></rect><rect id="Rectangle-path" fill="#FFFFFF" opacity="0.4" x="226.503" y="222.486" width="49.77" height="6.096"></rect><rect id="Rectangle-path" fill="#FFFFFF" opacity="0.4" x="96.492" y="228.582" width="49.77" height="6.096"></rect><rect id="Rectangle-path" fill="#FFFFFF" opacity="0.4" x="96.492" y="237.725" width="49.77" height="6.096"></rect><rect id="Rectangle-path" fill="#FFFFFF" opacity="0.4" x="96.492" y="246.868" width="49.77" height="6.096"></rect><rect id="Rectangle-path" fill="#FFFFFF" opacity="0.4" x="164.545" y="138.165" width="13.712" height="17.779"></rect><rect id="Rectangle-path" fill="#FFFFFF" opacity="0.4" transform="translate(201.364000, 147.053500) rotate(-180.000000) translate(-201.364000, -147.053500) " x="194.508" y="138.164" width="13.712" height="17.779"></rect><rect id="Rectangle-path" fill="#FFFFFF" opacity="0.4" x="164.545" y="166.611" width="13.712" height="17.779"></rect><rect id="Rectangle-path" fill="#FFFFFF" opacity="0.4" transform="translate(201.364000, 175.499500) rotate(-180.000000) translate(-201.364000, -175.499500) " x="194.508" y="166.61" width="13.712" height="17.779"></rect><rect id="Rectangle-path" fill="#FFFFFF" opacity="0.4" x="164.545" y="195.056" width="13.712" height="17.779"></rect><rect id="Rectangle-path" fill="#FFFFFF" opacity="0.4" transform="translate(201.364000, 203.946500) rotate(-180.000000) translate(-201.364000, -203.946500) " x="194.508" y="195.057" width="13.712" height="17.779"></rect><rect id="Rectangle-path" fill="#FFFFFF" opacity="0.4" x="164.545" y="223.502" width="13.712" height="17.779"></rect><rect id="Rectangle-path" fill="#FFFFFF" opacity="0.4" transform="translate(201.364000, 232.390500) rotate(-180.000000) translate(-201.364000, -232.390500) " x="194.508" y="223.501" width="13.712" height="17.779"></rect><rect id="Rectangle-path" fill="#FFFFFF" opacity="0.4" x="283.89" y="42.669" width="18.283" height="23.366"></rect><rect id="Rectangle-path" fill="#FFFFFF" opacity="0.4" x="283.89" y="76.194" width="18.283" height="23.366"></rect><rect id="Rectangle-path" fill="#FFFFFF" opacity="0.4" x="283.89" y="109.719" width="18.283" height="23.366"></rect><rect id="Rectangle-path" fill="#FFFFFF" opacity="0.4" x="283.89" y="143.245" width="18.283" height="23.366"></rect><rect id="Rectangle-path" fill="#FFFFFF" opacity="0.4" x="283.89" y="176.77" width="18.283" height="23.366"></rect><rect id="Rectangle-path" fill="#FFFFFF" opacity="0.4" x="283.89" y="210.295" width="18.283" height="23.366"></rect><rect id="Rectangle-path" fill="#FFFFFF" opacity="0.4" x="341.531" y="90.417" width="68.052" height="19.81"></rect><rect id="Rectangle-path" fill="#FFFFFF" opacity="0.4" x="341.785" y="133.085" width="68.052" height="19.81"></rect><rect id="Rectangle-path" fill="#FFFFFF" opacity="0.4" x="342.039" y="175.754" width="68.052" height="19.81"></rect><rect id="Rectangle-path" fill="#FFFFFF" opacity="0.4" x="342.293" y="218.423" width="68.052" height="19.81"></rect><rect id="Rectangle-path" fill="#FFFFFF" opacity="0.4" x="15.236" y="49.272" width="9.141" height="19.302"></rect><rect id="Rectangle-path" fill="#FFFFFF" opacity="0.4" x="462.147" y="138.165" width="22.853" height="29.462"></rect><rect id="Rectangle-path" fill="#FFFFFF" opacity="0.4" x="462.147" y="180.834" width="22.853" height="29.462"></rect><rect id="Rectangle-path" fill="#FFFFFF" opacity="0.4" x="462.147" y="223.502" width="22.853" height="29.462"></rect><path d="M187.204921,157.045828 C187.204921,157.045828 185.869267,163.512152 185.605183,166.951038" id="Shape" fill="#000000" opacity="0.1"></path></g><g id="Group" transform="translate(1105.000000, 121.000000)" fill-rule="nonzero"><polygon id="Shape" fill="#D7EFFF" points="565.058 154.647 565.058 114.898 541.462 114.898 541.462 154.647 513.519 154.647 513.519 93.161 493.028 93.161 493.028 47.201 476.263 47.201 476.263 0 441.49 0 441.49 47.201 424.725 47.201 424.725 93.161 404.854 93.161 404.854 37.885 393.677 37.885 393.677 9.937 386.847 9.937 386.847 37.885 347.107 37.885 347.107 214.27 316.681 214.27 316.681 195.638 298.052 195.638 298.052 214.27 267.626 214.27 267.626 154.647 212.983 154.647 212.983 114.898 189.387 114.898 189.387 154.647 188.146 154.647 188.146 231.039 163.308 231.039 163.308 186.322 133.503 186.322 133.503 231.039 108.665 231.039 108.665 93.161 89.416 93.161 89.416 47.201 18.628 47.201 18.628 93.161 0 93.161 0 336 108.665 336 188.146 336 267.626 336 347.107 336 404.854 336 513.519 336 593 336 593 154.647"></polygon><rect id="Rectangle-path" fill="#FFFFFF" opacity="0.4" x="11.798" y="107.445" width="26.08" height="14.906"></rect><rect id="Rectangle-path" fill="#FFFFFF" opacity="0.4" transform="translate(83.206000, 114.898000) rotate(-180.000000) translate(-83.206000, -114.898000) " x="70.166" y="107.445" width="26.08" height="14.906"></rect><rect id="Rectangle-path" fill="#FFFFFF" opacity="0.4" x="11.798" y="136.636" width="26.08" height="14.906"></rect><rect id="Rectangle-path" fill="#FFFFFF" opacity="0.4" transform="translate(83.206000, 144.089000) rotate(-180.000000) translate(-83.206000, -144.089000) " x="70.166" y="136.636" width="26.08" height="14.906"></rect><rect id="Rectangle-path" fill="#FFFFFF" opacity="0.4" x="11.798" y="165.826" width="26.08" height="14.906"></rect><rect id="Rectangle-path" fill="#FFFFFF" opacity="0.4" transform="translate(83.206000, 173.281000) rotate(-180.000000) translate(-83.206000, -173.281000) " x="70.166" y="165.828" width="26.08" height="14.906"></rect><rect id="Rectangle-path" fill="#FFFFFF" opacity="0.4" x="11.798" y="195.017" width="26.08" height="14.906"></rect><rect id="Rectangle-path" fill="#FFFFFF" opacity="0.4" transform="translate(83.206000, 202.470000) rotate(-180.000000) translate(-83.206000, -202.470000) " x="70.166" y="195.017" width="26.08" height="14.906"></rect><rect id="Rectangle-path" fill="#FFFFFF" opacity="0.4" x="11.798" y="224.207" width="26.08" height="14.906"></rect><rect id="Rectangle-path" fill="#FFFFFF" opacity="0.4" transform="translate(83.206000, 231.660000) rotate(-180.000000) translate(-83.206000, -231.660000) " x="70.166" y="224.207" width="26.08" height="14.906"></rect><rect id="Rectangle-path" fill="#FFFFFF" opacity="0.4" x="11.798" y="253.397" width="26.08" height="14.906"></rect><rect id="Rectangle-path" fill="#FFFFFF" opacity="0.4" transform="translate(83.206000, 260.850000) rotate(-180.000000) translate(-83.206000, -260.850000) " x="70.166" y="253.397" width="26.08" height="14.906"></rect><rect id="Rectangle-path" fill="#FFFFFF" opacity="0.4" x="11.798" y="282.588" width="26.08" height="14.906"></rect><rect id="Rectangle-path" fill="#FFFFFF" opacity="0.4" transform="translate(83.206000, 290.039000) rotate(-180.000000) translate(-83.206000, -290.039000) " x="70.166" y="282.586" width="26.08" height="14.906"></rect><rect id="Rectangle-path" fill="#FFFFFF" opacity="0.4" x="117.979" y="245.945" width="60.852" height="7.453"></rect><rect id="Rectangle-path" fill="#FFFFFF" opacity="0.4" x="117.979" y="257.124" width="60.852" height="7.453"></rect><rect id="Rectangle-path" fill="#FFFFFF" opacity="0.4" x="117.979" y="268.303" width="60.852" height="7.453"></rect><rect id="Rectangle-path" fill="#FFFFFF" opacity="0.4" x="276.94" y="249.671" width="60.852" height="7.453"></rect><rect id="Rectangle-path" fill="#FFFFFF" opacity="0.4" x="276.94" y="260.85" width="60.852" height="7.453"></rect><rect id="Rectangle-path" fill="#FFFFFF" opacity="0.4" x="276.94" y="272.03" width="60.852" height="7.453"></rect><rect id="Rectangle-path" fill="#FFFFFF" opacity="0.4" x="117.979" y="279.482" width="60.852" height="7.453"></rect><rect id="Rectangle-path" fill="#FFFFFF" opacity="0.4" x="117.979" y="290.662" width="60.852" height="7.453"></rect><rect id="Rectangle-path" fill="#FFFFFF" opacity="0.4" x="117.979" y="301.841" width="60.852" height="7.453"></rect><rect id="Rectangle-path" fill="#FFFFFF" opacity="0.4" x="201.185" y="168.932" width="16.765" height="21.738"></rect><rect id="Rectangle-path" fill="#FFFFFF" opacity="0.4" transform="translate(246.204500, 179.799000) rotate(-180.000000) translate(-246.204500, -179.799000) " x="237.822" y="168.93" width="16.765" height="21.738"></rect><rect id="Rectangle-path" fill="#FFFFFF" opacity="0.4" x="201.185" y="203.712" width="16.765" height="21.738"></rect><rect id="Rectangle-path" fill="#FFFFFF" opacity="0.4" transform="translate(246.204500, 214.579000) rotate(-180.000000) translate(-246.204500, -214.579000) " x="237.822" y="203.71" width="16.765" height="21.738"></rect><rect id="Rectangle-path" fill="#FFFFFF" opacity="0.4" x="201.185" y="238.492" width="16.765" height="21.738"></rect><rect id="Rectangle-path" fill="#FFFFFF" opacity="0.4" transform="translate(246.204500, 249.359000) rotate(-180.000000) translate(-246.204500, -249.359000) " x="237.822" y="238.49" width="16.765" height="21.738"></rect><rect id="Rectangle-path" fill="#FFFFFF" opacity="0.4" x="201.185" y="273.272" width="16.765" height="21.738"></rect><rect id="Rectangle-path" fill="#FFFFFF" opacity="0.4" transform="translate(246.204500, 284.139000) rotate(-180.000000) translate(-246.204500, -284.139000) " x="237.822" y="273.27" width="16.765" height="21.738"></rect><rect id="Rectangle-path" fill="#FFFFFF" opacity="0.4" x="347.107" y="52.17" width="22.354" height="28.569"></rect><rect id="Rectangle-path" fill="#FFFFFF" opacity="0.4" x="347.107" y="93.161" width="22.354" height="28.569"></rect><rect id="Rectangle-path" fill="#FFFFFF" opacity="0.4" x="347.107" y="134.152" width="22.354" height="28.569"></rect><rect id="Rectangle-path" fill="#FFFFFF" opacity="0.4" x="347.107" y="175.142" width="22.354" height="28.569"></rect><rect id="Rectangle-path" fill="#FFFFFF" opacity="0.4" x="347.107" y="216.133" width="22.354" height="28.569"></rect><rect id="Rectangle-path" fill="#FFFFFF" opacity="0.4" x="347.107" y="257.124" width="22.354" height="28.569"></rect><rect id="Rectangle-path" fill="#FFFFFF" opacity="0.4" x="417.584" y="110.551" width="83.206" height="24.222"></rect><rect id="Rectangle-path" fill="#FFFFFF" opacity="0.4" x="417.894" y="162.721" width="83.206" height="24.222"></rect><rect id="Rectangle-path" fill="#FFFFFF" opacity="0.4" x="418.205" y="214.891" width="83.206" height="24.222"></rect><rect id="Rectangle-path" fill="#FFFFFF" opacity="0.4" x="418.515" y="267.061" width="83.206" height="24.222"></rect><rect id="Rectangle-path" fill="#FFFFFF" opacity="0.4" x="18.628" y="60.244" width="11.177" height="23.601"></rect><rect id="Rectangle-path" fill="#FFFFFF" opacity="0.4" x="565.058" y="168.932" width="27.942" height="36.022"></rect><rect id="Rectangle-path" fill="#FFFFFF" opacity="0.4" x="565.058" y="221.102" width="27.942" height="36.022"></rect><rect id="Rectangle-path" fill="#FFFFFF" opacity="0.4" x="565.058" y="273.272" width="27.942" height="36.022"></rect><path d="M228.891791,192.016858 C228.891791,192.016858 227.258712,199.923105 226.935822,204.127763" id="Shape" fill="#000000" opacity="0.1"></path></g><path d="M0,464.168994 C130.489583,514.008453 297.283854,538.928182 500.382813,538.928182 C805.03125,538.928182 1053.20056,441.723474 1354.71094,409.092724 C1555.71786,387.338891 1744.14754,397.58098 1920,439.818992 L1920,644 L0.997920998,644 L0,464.168994 Z" id="Shape" fill="#E3F4FF" fill-rule="nonzero"></path><path d="M945.998569,413.087854 C947.012287,412.701142 948.117169,412.621144 949.175925,412.857799 C955.330802,413.547965 959.097666,418.509164 960.656369,424.130522 C962.794589,431.82238 954.521475,439.89433 947.817056,441.834799 C941.602229,443.625232 934.058508,442.835041 927.623864,442.775026 C920.71961,442.705009 913.335756,442.234896 906.641329,440.004357 C905.050191,439.480246 903.497681,438.845206 901.995196,438.103898 C894.6613,434.463018 887.457296,425.580872 890.874452,416.938785 C894.451475,407.93661 907.021013,403.825617 915.913611,404.00566 C918.887988,403.961744 921.778713,404.991451 924.056833,406.906361 C924.056833,406.906361 930.011876,421.529894 945.998569,413.087854 Z" id="Shape" fill="url(#linearGradient-1)" fill-rule="nonzero"></path><path d="M927,440 L927,488 M908.967869,424 C905.066975,427.345882 903.276151,432.485724 904.269985,437.483398 C905.263819,442.481073 908.891322,446.577313 913.786051,448.229105 C918.680779,449.880897 924.099106,448.837295 928,445.491413" id="Shape" stroke="#5D5C5B" stroke-width="2"></path><path d="M1134,370.513263 C1134,385.427771 1121.08,398 1105.5,398 C1089.92,398 1077,385.427771 1077,370.513263 C1077,364.967869 1079,360.313342 1082,356.039184 L1082,321.085184 C1082,307.351825 1093.49,296.060842 1107.19,297.061816 C1119.46062,297.942491 1128.97389,308.150504 1129,320.46458 L1129,356.039184 C1132,360.313342 1134,364.967869 1134,370.513263 Z" id="Shape" fill="url(#linearGradient-2)" fill-rule="nonzero"></path><path d="M1106,395 L1106,454 M1738,383 L1738,410" id="Shape" stroke="#5D5C5B" stroke-width="2"></path><path d="M1737.5,384 C1729.22,384 1722,377.991098 1722,369.979228 C1722.17429,366.938933 1723.21543,364.012446 1725,361.546736 L1725,342.518546 C1725,335.604744 1730.59644,330 1737.5,330 C1744.40356,330 1750,335.604744 1750,342.518546 L1750,361.546736 C1751.78457,364.012446 1752.82571,366.938933 1753,369.979228 C1753,377.991098 1745.78,384 1737.5,384 Z" id="Shape" fill="url(#linearGradient-3)" fill-rule="nonzero"></path><g id="Group" opacity="0.7" transform="translate(1678.000000, 224.000000)"><path d="M7,0 L33,0 C36.8659932,-7.10171439e-16 40,3.13400675 40,7 L40,27.125 C40,30.9909932 36.8659932,34.125 33,34.125 L26.5219939,34.125 L20,39 L14.3241343,34.125 L7,34.125 C3.13400675,34.125 9.35523182e-15,30.9909932 8.8817842e-15,27.125 L0,7 C-2.19029351e-15,3.13400675 3.13400675,-1.0661854e-15 7,0 Z" id="Shape" fill="url(#linearGradient-4)" fill-rule="nonzero"></path><polyline id="Shape" stroke="#FFFFFF" stroke-width="11" stroke-linecap="round" points="16 15 20.5 19 25 15"></polyline></g><g id="Group" transform="translate(1456.000000, 0.000000)"><path d="M7,0 L33,0 C36.8659932,-7.10171439e-16 40,3.13400675 40,7 L40,27.125 C40,30.9909932 36.8659932,34.125 33,34.125 L26.5219939,34.125 L20,39 L14.3241343,34.125 L7,34.125 C3.13400675,34.125 9.35523182e-15,30.9909932 8.8817842e-15,27.125 L0,7 C-2.19029351e-15,3.13400675 3.13400675,-1.0661854e-15 7,0 Z" id="Shape" fill="url(#linearGradient-5)" fill-rule="nonzero"></path><polyline id="Shape" stroke="#FFFFFF" stroke-width="11" stroke-linecap="round" points="16 15 20.5 19 25 15"></polyline></g><g id="Group" opacity="0.5" transform="translate(1163.000000, 116.000000)"><path d="M7,0 L33,0 C36.8659932,-7.10171439e-16 40,3.13400675 40,7 L40,27.125 C40,30.9909932 36.8659932,34.125 33,34.125 L26.5219939,34.125 L20,39 L14.3241343,34.125 L7,34.125 C3.13400675,34.125 9.35523182e-15,30.9909932 8.8817842e-15,27.125 L0,7 C-2.19029351e-15,3.13400675 3.13400675,-1.0661854e-15 7,0 Z" id="Shape" fill="url(#linearGradient-4)" fill-rule="nonzero"></path><polyline id="Shape" stroke="#FFFFFF" stroke-width="11" stroke-linecap="round" points="16 15 20.5 19 25 15"></polyline></g></g></g></svg> 