<?xml version="1.0" encoding="UTF-8"?> <svg xmlns="http://www.w3.org/2000/svg" xmlns:xlink="http://www.w3.org/1999/xlink" width="415px" height="432px" viewBox="0 0 415 432"> <!-- Generator: Sketch 48.1 (47250) - http://www.bohemiancoding.com/sketch --> <title>Group 4</title> <desc>Created with Sketch.</desc> <defs> <linearGradient x1="45.8113705%" y1="109.587726%" x2="36.2565889%" y2="-9.17451054%" id="linearGradient-1"> <stop stop-color="#61CDF4" offset="0%"></stop> <stop stop-color="#567BF0" offset="100%"></stop> </linearGradient> <circle id="path-2" cx="207.5" cy="207.5" r="207.5"></circle> <circle id="path-4" cx="207.5" cy="207.5" r="207.5"></circle> </defs> <g id="Landing-page-2" stroke="none" stroke-width="1" fill="none" fill-rule="evenodd" transform="translate(-509.000000, -1357.000000)"> <g id="Group-4" transform="translate(509.000000, 1357.000000)"> <g id="Shape-+-Rectangle-path-+-Shape-+-Shape-+-Shape-+-Shape-+-Rectangle-path-Mask" transform="translate(0.000000, 17.000000)"> <mask id="mask-3" fill="white"> <use xlink:href="#path-2"></use> </mask> <use id="Mask-Copy" fill="url(#linearGradient-1)" xlink:href="#path-2"></use> <mask id="mask-5" fill="white"> <use xlink:href="#path-4"></use> </mask> <use id="Mask-Copy-2" fill="url(#linearGradient-1)" xlink:href="#path-4"></use> <path d="M51.1711002,114 L285.8289,114 C292.550813,114 298,119.433139 298,126.135255 L298,287 L39,287 L39,126.135255 C39,119.433139 44.4491872,114 51.1711002,114 Z" id="Shape" fill="#F9F9F9" fill-rule="nonzero" mask="url(#mask-5)"></path> <rect id="Rectangle-path" fill="#E8E7E7" fill-rule="nonzero" mask="url(#mask-5)" x="8" y="287" width="319" height="6"></rect> <path d="M137,280 L200,280 L200,280.146667 C200,282.274804 198.353222,284 196.321818,284 L140.678182,284 C138.646778,284 137,282.274804 137,280.146667 L137,280 Z" id="Shape" fill="#E8E7E7" fill-rule="nonzero" mask="url(#mask-5)"></path> <path d="M8,293 L326,293 C326,297.970563 322.04777,302 317.172447,302 L16.8275534,302 C11.9522303,302 8,297.970563 8,293 Z" id="Shape" fill="#F9F9F9" fill-rule="nonzero" mask="url(#mask-5)"></path> <path d="M375.768001,133.574953 C373.999459,128.163852 377.82385,121.00805 384.227631,122.114291 C392.240338,123.492352 389.737564,130.780903 390.612258,136.381645 C391.397567,141.584141 396.211576,145.490754 399.512428,149.214046 C404.147667,154.448149 407.525135,158.841508 405.82044,166.092131 C404.496354,171.512477 402.896022,176.862995 401.025585,182.12315 C399.691198,185.979192 396.964962,191.118473 397.833271,195.347476 C398.918658,200.720649 405.596978,205.822003 409.22983,209.532653 C417.568153,218.04123 425.561706,228.610577 422.222546,241.196444 C418.960002,253.491528 404.415822,255.324728 393.549187,254.958088 C392.11903,254.907517 390.695258,254.819018 389.271487,254.705233 C345.217561,251.07044 347.675642,230.481706 352.572651,223.212119 C357.46966,215.942532 373.316304,207.45924 373.316304,201.416001 C373.316304,195.372762 371.298762,194.064236 368.42568,180.827267 C367.116831,174.802992 369.064142,165.655955 378.826237,158.417976 C388.588331,151.179996 377.715312,139.529693 375.768001,133.574953 Z" id="Shape" fill="#83D4A7" fill-rule="nonzero" mask="url(#mask-5)"></path> <polygon id="Shape" fill="#F7F7F7" fill-rule="nonzero" mask="url(#mask-5)" points="407.067144 302 368.976961 302 358 246 419 246"></polygon> <rect id="Rectangle-104" fill="#A5C1E3" mask="url(#mask-5)" x="15" y="300" width="397" height="23"></rect> <rect id="Rectangle-104-Copy" fill="#91ABCB" mask="url(#mask-5)" transform="translate(76.500000, 354.500000) rotate(90.000000) translate(-76.500000, -354.500000) " x="45" y="343" width="63" height="23"></rect> <rect id="Rectangle-104-Copy-2" fill="#91ABCB" mask="url(#mask-5)" transform="translate(346.500000, 354.500000) rotate(90.000000) translate(-346.500000, -354.500000) " x="315" y="343" width="63" height="23"></rect> </g> <path d="M93.1359524,95 L247,95 L247,340 L93.1359524,340 C90.2994442,340 88,337.69282 88,334.84677 L88,100.15323 C88,97.3071796 90.2994442,95 93.1359524,95 Z" id="Shape" fill="#B9DAFF" fill-rule="nonzero" transform="translate(167.500000, 217.500000) rotate(90.000000) translate(-167.500000, -217.500000) "></path> <path d="M151,57 C139.954305,57 131,65.954305 131,77 C131,88.045695 139.954305,97 151,97 C162.045695,97 171,88.045695 171,77 C171,71.6956702 168.892863,66.6085919 165.142136,62.8578644 C161.391408,59.1071368 156.30433,57 151,57 Z M151,93.55 C141.859687,93.55 134.45,86.1403126 134.45,77 C134.45,67.8596874 141.859687,60.45 151,60.45 C160.140313,60.45 167.55,67.8596874 167.55,77 C167.539667,86.1360291 160.136029,93.5396671 151,93.55 Z" id="Shape" fill="#3CB2FD" fill-rule="nonzero"></path> <circle id="Oval" fill="#3CB2FD" fill-rule="nonzero" cx="150.5" cy="77.5" r="14.5"></circle> <path d="M159.174286,81.2222247 L145.918571,81.2222247 L143,85 L143,69.7881581 C143,68.8005918 143.8174,68.0000111 144.825714,68.0000111 L159.167857,68.0000111 C159.65318,67.9983374 160.11921,68.1859917 160.46299,68.5215159 C160.806769,68.8570401 161.000003,69.3128191 161,69.7881581 L161,79.4340777 C161,80.421644 160.1826,81.2222247 159.174286,81.2222247 Z" id="Shape" fill="#FFFFFF" fill-rule="nonzero"></path> <path d="M315,76 C303.954305,76 295,84.954305 295,96 C295,107.045695 303.954305,116 315,116 C326.045695,116 335,107.045695 335,96 C335,90.6956702 332.892863,85.6085919 329.142136,81.8578644 C325.391408,78.1071368 320.30433,76 315,76 Z M315,112.55 C305.859687,112.55 298.45,105.140313 298.45,96 C298.45,86.8596874 305.859687,79.45 315,79.45 C324.140313,79.45 331.55,86.8596874 331.55,96 C331.539667,105.136029 324.136029,112.539667 315,112.55 Z" id="Shape" fill="#3CB2FD" fill-rule="nonzero"></path> <circle id="Oval" fill="#3CB2FD" fill-rule="nonzero" cx="315.5" cy="96.5" r="14.5"></circle> <path d="M325,94.669205 C325,90.43246 320.525,87 315,87 C309.475,87 305,90.43246 305,94.669205 C305,98.8046227 309.26875,102.180086 314.6125,102.33841 C314.74375,102.33841 314.2,106.074852 314.3125,105.998856 C317.21875,103.94698 320.69375,101.831774 322.95625,98.9059499 C323.8375,97.7660186 325,96.2334441 325,94.669205 Z" id="Shape" fill="#FFFFFF" fill-rule="nonzero"></path> <path d="M68,227 L82.9431579,217.533981 L149.107368,217.533981 C150.704925,217.533981 152,216.239953 152,214.643689 L152,164.890291 C152,163.294027 150.704925,162 149.107368,162 L70.8926316,162 C70.125458,162 69.3897058,162.304512 68.8472322,162.846547 C68.3047585,163.388581 68,164.123738 68,164.890291 L68,215.009709" id="Shape" fill="#0A55AB" fill-rule="nonzero"></path> <polygon id="Shape" fill="#FEFEFE" fill-rule="nonzero" points="252 243 151 243 151 272 157.426125 264.926982 252 264.926982"></polygon> <path d="M392.27567,264 C395.119328,250.276701 394.685517,236.116799 391.006583,222.576102 C389.492931,217.028484 387.424054,211.367134 388.402309,205.712102 C389.453272,199.659006 395.884639,190.332943 395.997006,184.797962 C396.23496,173.178293 382.208897,149.717809 383.035126,140" id="Shape" stroke="#FFFFFF" stroke-width="1.51"></path> <path d="M244,0 C232.954305,0 224,8.954305 224,20 C224,31.045695 232.954305,40 244,40 C255.045695,40 264,31.045695 264,20 C264,8.954305 255.045695,0 244,0 Z M244,36.55 C237.30615,36.55 231.271419,32.517722 228.709794,26.3334108 C226.148168,20.1490997 227.564116,13.0306496 232.297383,8.29738277 C237.03065,3.56411594 244.1491,2.14816819 250.333411,4.70979374 C256.517722,7.27141929 260.55,13.3061498 260.55,20 C260.539667,29.1360291 253.136029,36.5396671 244,36.55 Z" id="Shape" fill="#3CB2FD" fill-rule="nonzero"></path> <circle id="Oval" fill="#3CB2FD" fill-rule="nonzero" cx="243.5" cy="20.5" r="14.5"></circle> <polygon id="Shape" fill="#FFFFFF" fill-rule="nonzero" points="233 17.9498422 252 13 246.572335 31"></polygon> <polygon id="Shape" fill="#EBF4FF" fill-rule="nonzero" points="252 13 239 23.0733138 239.884396 28 240.985252 24.8642648"></polygon> <polygon id="Shape" fill="#CFE7FF" fill-rule="nonzero" points="240.277512 25 239 28 242 26.5751503"></polygon> </g> </g> </svg> 