<svg width="326" height="64" viewBox="0 0 326 64" fill="none" xmlns="http://www.w3.org/2000/svg">
<path d="M310.997 11L317.5 4.20108L324.002 11L326 8.90688L317.5 0L309 8.90688L310.997 11Z" fill="black"/>
<path d="M6.08458 52H14.3346L18.0306 40.318H36.0486L39.8106 52H48.9186L33.3426 4.81H21.8586L6.08458 52ZM27.0726 12.004L34.0026 33.916H20.0766L27.0726 12.004ZM58.1008 63.814H66.0868V46.588C67.9348 49.954 71.8948 52.66 77.3728 52.66C86.2828 52.66 92.6848 45.928 92.6848 34.84V34.312C92.6848 23.158 86.0188 16.756 77.3728 16.756C72.2908 16.756 68.0008 19.726 66.0868 23.026V17.482H58.1008V63.814ZM75.3928 46.324C69.5848 46.324 65.8228 42.694 65.8228 34.972V34.444C65.8228 26.788 69.7828 23.026 75.3268 23.026C80.5408 23.026 84.5008 26.788 84.5008 34.444V34.972C84.5008 42.364 81.2668 46.324 75.3928 46.324ZM102.506 63.814H110.492V46.588C112.34 49.954 116.3 52.66 121.778 52.66C130.688 52.66 137.09 45.928 137.09 34.84V34.312C137.09 23.158 130.424 16.756 121.778 16.756C116.696 16.756 112.406 19.726 110.492 23.026V17.482H102.506V63.814ZM119.798 46.324C113.99 46.324 110.228 42.694 110.228 34.972V34.444C110.228 26.788 114.188 23.026 119.732 23.026C124.946 23.026 128.906 26.788 128.906 34.444V34.972C128.906 42.364 125.672 46.324 119.798 46.324ZM147.572 52H156.35V32.662H172.454V25.864H156.35V11.806H176.81V4.81H147.572V52ZM186.617 52H194.603V1.51H186.617V52ZM222.421 46.456C216.349 46.456 212.851 42.034 212.851 34.972V34.444C212.851 27.316 216.481 23.026 222.421 23.026C228.361 23.026 231.925 27.382 231.925 34.51V34.972C231.925 42.034 228.361 46.456 222.421 46.456ZM222.355 52.66C232.519 52.66 240.109 45.664 240.109 34.906V34.378C240.109 23.818 232.519 16.756 222.421 16.756C212.257 16.756 204.667 23.884 204.667 34.576V35.104C204.667 45.598 212.191 52.66 222.355 52.66ZM256.126 52H264.31L271.306 28.768L277.708 52H285.826L296.65 17.482H288.862L281.668 42.43L274.936 17.482H268.27L260.944 42.43L254.08 17.482H245.566L256.126 52Z" fill="black"/>
</svg>
